# xmcd
#
# Track frame offsets: 
#        183
#        14483
#        24158
#        38233
#        52433
#        63158
#        76058
#        85083
#        99233
#        119733
#        135258
#        152883
#        164358
#        176608
#        191283
#        205683
#        219408
#
# Disc length: 3104 seconds
#
# Revision: 0
# Processed by: cddbd v1.5.1PL2 Copyright (c) Steve Scherf et al.
# Submitted via: ExactAudioCopy v0.95b3
#
DISCID=d80c1e11
DTITLE=Edith Piaf - Una voce, un cuore CD1
DYEAR=1900
DGENRE=Blues
TTITLE0=La vie en rose (live)
TTITLE1=No, je ne regrette rien
TTITLE2=Padam padam (live)
TTITLE3=Mon dieu (live)
TTITLE4=Les flonflons du bal (live)
TTITLE5=T'es l'Homme qu'il me faut (live)
TTITLE6=La goulante du povre Jean (live)
TTITLE7=Jesabel
TTITLE8=Milord
TTITLE9=L'hymne à l'amour
TTITLE10=Les amants
TTITLE11=Les amants de demain
TTITLE12=Les amants merveilleux
TTITLE13=Les amants d'un jour
TTITLE14=Les amants de paris (registrazione originale dal 78 giri)
TTITLE15=Mon manège a moi (tu me fait tourner la tête)
TTITLE16=C'est l'amour
EXTD=
EXTT0=
EXTT1=
EXTT2=
EXTT3=
EXTT4=
EXTT5=
EXTT6=
EXTT7=
EXTT8=
EXTT9=
EXTT10=
EXTT11=
EXTT12=
EXTT13=
EXTT14=
EXTT15=
EXTT16=
PLAYORDER=
